PathFileType	4	(X/Y/Z)	/Users/itak/Documents/Research/Walk-IL/dataset/trc/00116_00007.trc
DataRate	CameraRate	NumFrames	NumMarkers	Units	OrigDataRate	OrigDataStartFrame	OrigNumFrames
100.000000	100.000000	4	53	mm	100.000000	67	538
Frame#	Time	RPSI			LPSI			L3			STRN			T10			C7			CLAV			RBAK			LBAK			LSHO			LUPA			LAEL			LAOL			LWTS			LWPS			LFRA			LIFD			LHPS			LHTS			RSHO			RUPA			RAEL			RAOL			RWTS			RWPS			RFRA			RIFD			RHTS			RHPS			RBHD			LFHD			RFHD			LBHD			LHIP			RHIP			RASI			LASI			LKNE			LTHI			LANK			LTIP			LTOE			LMT1			LMT5			LHEE			RKNE			RTHI			RANK			RTIP			RTOE			RMT1			RMT5			RHEE			
		X1	Y1	Z1	X2	Y2	Z2	X3	Y3	Z3	X4	Y4	Z4	X5	Y5	Z5	X6	Y6	Z6	X7	Y7	Z7	X8	Y8	Z8	X9	Y9	Z9	X10	Y10	Z10	X11	Y11	Z11	X12	Y12	Z12	X13	Y13	Z13	X14	Y14	Z14	X15	Y15	Z15	X16	Y16	Z16	X17	Y17	Z17	X18	Y18	Z18	X19	Y19	Z19	X20	Y20	Z20	X21	Y21	Z21	X22	Y22	Z22	X23	Y23	Z23	X24	Y24	Z24	X25	Y25	Z25	X26	Y26	Z26	X27	Y27	Z27	X28	Y28	Z28	X29	Y29	Z29	X30	Y30	Z30	X31	Y31	Z31	X32	Y32	Z32	X33	Y33	Z33	X34	Y34	Z34	X35	Y35	Z35	X36	Y36	Z36	X37	Y37	Z37	X38	Y38	Z38	X39	Y39	Z39	X40	Y40	Z40	X41	Y41	Z41	X42	Y42	Z42	X43	Y43	Z43	X44	Y44	Z44	X45	Y45	Z45	X46	Y46	Z46	X47	Y47	Z47	X48	Y48	Z48	X49	Y49	Z49	X50	Y50	Z50	X51	Y51	Z51	X52	Y52	Z52	X53	Y53	Z53	

68	0.67	475.3159484863281	1125.881103515625	-285.3330078125	475.5580749511719	1125.65234375	-420.1051635742188	469.0206604003906	1157.976318359375	-355.5206604003906	679.1752319335938	1362.65478515625	-356.57177734375	425.9823303222656	1305.32568359375	-360.1693420410156	452.1905822753906	1597.924438476562	-379.4959106445312	638.369873046875	1495.827026367188	-362.8911743164062	402.5604553222656	1413.427490234375	-289.8150634765625	448.0790100097656	1575.815185546875	-480.5334777832031	538.1351318359375	1563.136474609375	-545.500244140625	522.8961181640625	1429.133178710938	-613.4876098632812	544.2815551757812	1210.17431640625	-628.3797607421875	479.6529541015625	1196.41650390625	-570.6445922851562	655.18017578125	958.4710083007812	-583.3699951171875	572.8591918945312	928.0579223632812	-606.3701782226562	564.8514404296875	1094.94970703125	-630.2548828125	673.0338745117188	764.7716064453125	-555.5899047851562	604.2262573242188	853.9805297851562	-606.3540649414062	672.740966796875	869.306884765625	-592.7784423828125	502.5420227050781	1582.874267578125	-194.6934967041016	485.8860778808594	1509.029052734375	-131.029541015625	483.0842895507812	1214.196166992188	-111.4633026123047	484.6241455078125	1212.631713867188	-208.0494995117188	632.1394653320312	975.4014282226562	-112.7016906738281	556.4857177734375	956.9361572265625	-87.41462707519531	508.2420043945312	1141.990356445312	-93.64597320556641	662.5126953125	781.5289916992188	-126.5391387939453	663.448486328125	867.7219848632812	-104.1477584838867	595.5930786132812	858.6079711914062	-79.03847503662109	484.779541015625	1767.882202148438	-297.4125366210938	640.9955444335938	1844.452270507812	-432.31982421875	641.6685791015625	1850.102905273438	-302.8006896972656	474.0724792480469	1765.960571289062	-432.3243408203125	567.9251098632812	1036.553100585938	-524.8740844726562	600.5950317382812	1032.643920898438	-165.9909973144531	681.8868408203125	1107.108764648438	-219.8926544189453	677.7885131835938	1104.28369140625	-486.9026794433594	580.6145629882812	536.5160522460938	-498.7875061035156	563.4808959960938	681.357177734375	-524.9388427734375	455.328125	35.66928863525391	-494.7766723632812	472.3146667480469	292.1310424804688	-526.7132568359375	687.390625	36.03326034545898	-437.6182250976562	605.5866088867188	41.45824813842773	-404.3481750488281	580.3165283203125	34.13189697265625	-519.580322265625	386.4712219238281	38.39509582519531	-433.5529479980469	580.9578247070312	539.9702758789062	-192.1746826171875	612.1793212890625	817.1726684570312	-167.9072570800781	471.3135986328125	30.05496978759766	-203.6542510986328	551.4968872070312	408.3918151855469	-179.5834197998047	704.8865966796875	41.3995361328125	-257.0420227050781	642.2985229492188	30.15917778015137	-298.0149230957031	605.737060546875	39.13849639892578	-182.7777709960938	413.5306091308594	32.55760955810547	-252.5848236083984	
69	0.68	475.2700805664062	1125.868896484375	-285.3413696289062	475.5266723632812	1125.650146484375	-420.1059875488281	468.9705505371094	1157.978271484375	-355.52197265625	679.1576538085938	1362.66552734375	-356.5538330078125	425.9595642089844	1305.324829101562	-360.1728820800781	452.1442260742188	1597.931030273438	-379.5477905273438	638.345947265625	1495.843139648438	-362.9070434570312	402.5108337402344	1413.455444335938	-289.8094482421875	448.0752258300781	1575.810791015625	-480.5716247558594	538.1236572265625	1563.117309570312	-545.5203247070312	522.886962890625	1429.104614257812	-613.498046875	544.2833251953125	1210.120971679688	-628.3378295898438	479.6883239746094	1196.403686523438	-570.6163330078125	655.1469116210938	958.4221801757812	-583.2127075195312	572.8383178710938	928.0211791992188	-606.2665405273438	564.8328247070312	1094.897216796875	-630.1919555664062	672.91015625	764.697509765625	-555.3714599609375	604.1173706054688	853.9088134765625	-606.1739501953125	672.7412109375	869.2662353515625	-592.59228515625	502.5016479492188	1582.934204101562	-194.7211151123047	485.8289794921875	1509.111206054688	-131.0497436523438	483.1900939941406	1214.277465820312	-111.2975692749023	484.6152648925781	1212.657592773438	-207.9480438232422	632.4011840820312	975.5823364257812	-112.6979293823242	556.818603515625	957.0674438476562	-87.25859069824219	508.3495483398438	1142.06884765625	-93.52601623535156	662.9080200195312	781.7278442382812	-126.4728317260742	663.8676147460938	867.9351196289062	-104.1171646118164	596.0191650390625	858.77392578125	-78.90428924560547	484.7797241210938	1767.93310546875	-297.4797668457031	641.155029296875	1844.361938476562	-432.2823486328125	641.7905883789062	1850.002685546875	-302.7846984863281	474.1405029296875	1766.028686523438	-432.396240234375	567.9134521484375	1036.5537109375	-524.861328125	600.536376953125	1032.655517578125	-165.9565734863281	681.8236694335938	1107.12158203125	-219.8467102050781	677.7842407226562	1104.283447265625	-486.8824768066406	580.626220703125	536.5231323242188	-498.7742919921875	563.5155029296875	681.3554077148438	-524.9091796875	455.3286437988281	35.67273712158203	-494.7732543945312	472.3259582519531	292.1347961425781	-526.7007446289062	687.3890991210938	36.03192901611328	-437.6178894042969	605.5800170898438	41.4559211730957	-404.3421630859375	580.3177490234375	34.13344192504883	-519.5800170898438	386.4720764160156	38.39418029785156	-433.5528869628906	580.9404907226562	539.976318359375	-192.1585845947266	612.2024536132812	817.2421875	-167.9357147216797	471.3148498535156	30.04660034179688	-203.65380859375	551.48046875	408.3870849609375	-179.5684051513672	704.890380859375	41.40422821044922	-257.0337829589844	642.2987670898438	30.16836547851562	-298.0121459960938	605.735595703125	39.13804244995117	-182.7774353027344	413.5310974121094	32.55821990966797	-252.5846710205078	
70	0.6900000000000001	475.2254333496094	1125.858642578125	-285.3505554199219	475.4957580566406	1125.648315429688	-420.1087036132812	468.9208374023438	1157.980224609375	-355.5259094238281	679.1398315429688	1362.681030273438	-356.5399780273438	425.934326171875	1305.322998046875	-360.1773376464844	452.0926513671875	1597.936157226562	-379.5963134765625	638.3192749023438	1495.865112304688	-362.9253540039062	402.4618225097656	1413.479370117188	-289.8039855957031	448.0671081542969	1575.80615234375	-480.6095275878906	538.0966796875	1563.098266601562	-545.5420532226562	522.869140625	1429.07666015625	-613.5103759765625	544.2824096679688	1210.070434570312	-628.2979736328125	479.6924438476562	1196.38818359375	-570.5963134765625	655.1351318359375	958.3893432617188	-583.0509643554688	572.8451538085938	927.9877319335938	-606.1598510742188	564.8126831054688	1094.839965820312	-630.1265869140625	672.8358154296875	764.6488647460938	-555.13916015625	604.0328979492188	853.8461303710938	-605.9832153320312	672.7705078125	869.235107421875	-592.3946533203125	502.4539794921875	1582.99560546875	-194.7501525878906	485.7657470703125	1509.1923828125	-131.0712280273438	483.2933349609375	1214.36279296875	-111.1528854370117	484.6185607910156	1212.686889648438	-207.8511962890625	632.6882934570312	975.7715454101562	-112.6897048950195	557.1707153320312	957.2017211914062	-87.11220550537109	508.4532165527344	1142.15185546875	-93.42513275146484	663.3326416015625	781.9375610351562	-126.417854309082	664.31982421875	868.1644897460938	-104.0795593261719	596.4586181640625	858.953369140625	-78.78418731689453	484.7795715332031	1767.99267578125	-297.5450439453125	641.31201171875	1844.2744140625	-432.2505798339844	641.9019775390625	1849.900146484375	-302.7743225097656	474.2070617675781	1766.102416992188	-432.4734497070312	567.8890380859375	1036.553588867188	-524.852783203125	600.4776611328125	1032.667602539062	-165.9281005859375	681.758056640625	1107.131469726562	-219.8011169433594	677.779052734375	1104.283935546875	-486.8651733398438	580.6422119140625	536.5286865234375	-498.7626342773438	563.5520629882812	681.3538818359375	-524.8812255859375	455.3299560546875	35.67731475830078	-494.7705993652344	472.3416748046875	292.1356506347656	-526.68994140625	687.386962890625	36.03034591674805	-437.6176147460938	605.57275390625	41.45274353027344	-404.3361206054688	580.318603515625	34.1345100402832	-519.579833984375	386.4731140136719	38.39263153076172	-433.5527648925781	580.923583984375	539.982177734375	-192.1450042724609	612.2930297851562	817.3804931640625	-168.0158386230469	471.3147583007812	30.03874397277832	-203.6539916992188	551.4637451171875	408.3822631835938	-179.5554962158203	704.8929443359375	41.40934371948242	-257.0255737304688	642.298583984375	30.17766761779785	-298.0091552734375	605.7334594726562	39.13804626464844	-182.7774047851562	413.5311889648438	32.55848693847656	-252.5844879150391	
71	0.7000000000000001	475.1821899414062	1125.851684570312	-285.3601379394531	475.4643859863281	1125.646728515625	-420.1130065917969	468.8710327148438	1157.983032226562	-355.5317687988281	679.1216430664062	1362.700439453125	-356.53076171875	425.9062194824219	1305.320922851562	-360.1820983886719	452.0371704101562	1597.93896484375	-379.6400756835938	638.2911376953125	1495.892700195312	-362.9458618164062	402.4149780273438	1413.500244140625	-289.7994995117188	448.055419921875	1575.803100585938	-480.6479187011719	538.0533447265625	1563.078369140625	-545.5664672851562	522.8424072265625	1429.048828125	-613.5243530273438	544.2788696289062	1210.022705078125	-628.259521484375	479.669189453125	1196.370361328125	-570.5835571289062	655.1436157226562	958.37158203125	-582.8867797851562	572.87744140625	927.9564208984375	-606.0477294921875	564.791259765625	1094.77978515625	-630.0594482421875	672.8169555664062	764.6295166015625	-554.8978271484375	603.98291015625	853.7965087890625	-605.7859497070312	672.8232421875	869.2123413085938	-592.1932983398438	502.4010620117188	1583.058349609375	-194.7810516357422	485.7011108398438	1509.272338867188	-131.0922698974609	483.3919982910156	1214.450805664062	-111.0320281982422	484.63037109375	1212.72265625	-207.7591552734375	633.0009155273438	975.9702758789062	-112.6708755493164	557.5383911132812	957.3388061523438	-86.97733306884766	508.5514526367188	1142.239868164062	-93.34492492675781	663.7920532226562	782.1605224609375	-126.3685913085938	664.790771484375	868.4080200195312	-104.0348587036133	596.9088745117188	859.1447143554688	-78.67576599121094	484.7803649902344	1768.060424804688	-297.60791015625	641.46435546875	1844.191162109375	-432.2254028320312	642.0028686523438	1849.796508789062	-302.7687072753906	474.2718200683594	1766.181640625	-432.5550231933594	567.848388671875	1036.5517578125	-524.8496704101562	600.4191284179688	1032.68017578125	-165.9053497314453	681.6910400390625	1107.139282226562	-219.7564697265625	677.7717895507812	1104.28271484375	-486.8497009277344	580.66259765625	536.5327758789062	-498.7524719238281	563.5905151367188	681.3536987304688	-524.8550415039062	455.33203125	35.68289947509766	-494.7689208984375	472.3623352050781	292.1330261230469	-526.6817016601562	687.3843994140625	36.02865600585938	-437.617431640625	605.5659790039062	41.44933700561523	-404.3310546875	580.319091796875	34.13515472412109	-519.5797729492188	386.4742431640625	38.39048004150391	-433.552490234375	580.9075927734375	539.9879760742188	-192.1336364746094	612.484619140625	817.6171264648438	-168.1749420166016	471.3138427734375	30.03167915344238	-203.6545562744141	551.4473876953125	408.377685546875	-179.5447540283203	704.8937377929688	41.41489410400391	-257.0173034667969	642.2974243164062	30.1866626739502	-298.0062561035156	605.7308959960938	39.13854217529297	-182.7774658203125	413.53125	32.55862426757812	-252.5839538574219	
